<svg xmlns="http://www.w3.org/2000/svg" viewBox="0 0 80 80" id="Star">
  <path d="M73 30.21H49.265l-7.354-23.8a2 2 0 0 0-3.822 0l-7.354 23.8H7a2 2 0 0 0-1.214 3.589l19.286 14.733-7.378 23.877a2 2 0 0 0 3.125 2.18L40 59.937l19.18 14.652a1.998 1.998 0 0 0 2.36.052 2 2 0 0 0 .766-2.232l-7.378-23.877L74.214 33.8A1.999 1.999 0 0 0 73 30.21zM51.39 46.201a2 2 0 0 0-.696 2.18l5.943 19.231-15.423-11.78a1.993 1.993 0 0 0-2.428 0l-15.423 11.78 5.943-19.231a2 2 0 0 0-.697-2.18L12.913 34.21H32.21a2 2 0 0 0 1.91-1.41L40 13.775l5.88 19.027a2 2 0 0 0 1.91 1.409h19.297L51.391 46.201z" fill="#9333ea" class="color000000 svgShape"></path>
</svg>
